FFmpeg version SVN-r25716, Copyright (c) 2000-2010 the FFmpeg developers  built on Nov 10 2010 12:23:18 with gcc 4.1.2 20080704 (Red Hat 4.1.2-48)  configuration: --enable-libmp3lame --enable-shared --disable-mmx --arch=x86_64  libavutil     50.33. 0 / 50.33. 0  libavcore      0.12. 1 /  0.12. 1  libavcodec    52.94. 4 / 52.94. 4  libavformat   52.84. 0 / 52.84. 0  libavdevice   52. 2. 2 / 52. 2. 2  libavfilter    1.59. 0 /  1.59. 0  libswscale     0.12. 0 /  0.12. 0Seems stream 0 codec frame rate differs from container frame rate: 1000.00 (1000/1) -> 30.00 (30/1)Input #0, mov,mp4,m4a,3gp,3g2,mj2, from '/RAID10/data/converted_video_files/34523.mov':  Metadata:    major_brand     : qt      minor_version   : 537199360    compatible_brands: qt    Duration: 00:00:23.33, start: 0.000000, bitrate: 2149 kb/s    Stream #0.0(eng): Video: mpeg4, yuv420p, 200x200 [PAR 1:1 DAR 1:1], 2147 kb/s, 30 fps, 30 tbr, 600 tbn, 1k tbc[buffer @ 0x1c750dd0] w:200 h:200 pixfmt:yuv420pOutput #0, flv, to '/RAID10/data/converted_video_files/34523.flv':  Metadata:    encoder         : Lavf52.84.0    Stream #0.0(eng): Video: flv, yuv420p, 200x200 [PAR 1:1 DAR 1:1], q=2-31, 600 kb/s, 1k tbn, 24 tbcStream mapping:  Stream #0.0 -> #0.0Press [q] to stop encodingframe=  174 fps=  0 q=3.7 size=     613kB time=7.25 bitrate= 692.3kbits/s dup=0 drop=43    frame=  373 fps=350 q=3.0 size=    1230kB time=15.54 bitrate= 648.5kbits/s dup=0 drop=93    frame=  516 fps=339 q=3.7 size=    1667kB time=21.50 bitrate= 635.0kbits/s dup=0 drop=129    frame=  560 fps=340 q=3.4 Lsize=    1804kB time=23.33 bitrate= 633.5kbits/s dup=0 drop=140    video:1795kB audio:0kB global headers:0kB muxing overhead 0.498807%